<?xml version="1.0" encoding="UTF-8" standalone="no"?>
<svg
   xmlns:dc="http://purl.org/dc/elements/1.1/"
   xmlns:cc="http://creativecommons.org/ns#"
   xmlns:rdf="http://www.w3.org/1999/02/22-rdf-syntax-ns#"
   xmlns:svg="http://www.w3.org/2000/svg"
   xmlns="http://www.w3.org/2000/svg"
   xmlns:sodipodi="http://sodipodi.sourceforge.net/DTD/sodipodi-0.dtd"
   xmlns:inkscape="http://www.inkscape.org/namespaces/inkscape"
   id="Layer_1"
   data-name="Layer 1"
   viewBox="0 0 86.62 72.07"
   version="1.1"
   sodipodi:docname="ds-logo.svg"
   inkscape:version="0.92.3 (2405546, 2018-03-11)">
  <metadata
     id="metadata15">
    <rdf:RDF>
      <cc:Work
         rdf:about="">
        <dc:format>image/svg+xml</dc:format>
        <dc:type
           rdf:resource="http://purl.org/dc/dcmitype/StillImage" />
        <dc:title>ds-logo</dc:title>
      </cc:Work>
    </rdf:RDF>
  </metadata>
  <sodipodi:namedview
     pagecolor="#ffffff"
     bordercolor="#666666"
     borderopacity="1"
     objecttolerance="10"
     gridtolerance="10"
     guidetolerance="10"
     inkscape:pageopacity="0"
     inkscape:pageshadow="2"
     inkscape:window-width="1315"
     inkscape:window-height="713"
     id="namedview13"
     showgrid="false"
     inkscape:pagecheckerboard="true"
     inkscape:zoom="3.2745942"
     inkscape:cx="43.310001"
     inkscape:cy="36.035"
     inkscape:window-x="51"
     inkscape:window-y="27"
     inkscape:window-maximized="1"
     inkscape:current-layer="Layer_1" />
  <defs
     id="defs4">
    <style
       id="style2">.cls-1{fill:#fff;}</style>
  </defs>
  <title
     id="title6">ds-logo</title>
  <path
     style="fill:#ffffff;stroke-width:1"
     d="m 1.4083461,107.00872 c 0.991174,-0.43188 0.989237,-0.44825 -0.09154,-0.77375 -1.39131099,-0.41905 -0.97906899,-1.76543 0.525436,-1.71609 1.053,0.0346 1.055137,0.0479 0.07241,0.45196 -0.92955699,0.38222 -0.93993799,0.44602 -0.126582,0.77803 1.283855,0.52406 1.100931,1.77894 -0.25315,1.73665 -1.08819399,-0.034 -1.09385799,-0.0553 -0.126582,-0.4768 z m 2.394187,-1.51283 c -0.01974,-1.25309 0.07903,-1.99355 0.219483,-1.64547 0.14045,0.34808 0.692056,0.63288 1.225781,0.63288 0.77285,0 0.954968,0.33499 0.894552,1.64547 -0.07061,1.53152 -0.09047,1.54907 -0.286781,0.25315 -0.116001,-0.76577 -0.522407,-1.39233 -0.903112,-1.39233 -0.380706,0 -0.787107,0.62656 -0.903114,1.39233 -0.129212,0.85292 -0.224823,0.50966 -0.246809,-0.88603 z m 3.504139,0.37973 c 0.07061,-1.53152 0.09047,-1.54905 0.286779,-0.25315 0.116001,0.76579 0.522409,1.39233 0.903114,1.39233 0.380706,0 0.787107,-0.62654 0.903112,-1.39233 0.196314,-1.2959 0.216174,-1.27837 0.286781,0.25315 0.06629,1.43787 -0.08383,1.64547 -1.189893,1.64547 -1.106056,0 -1.256183,-0.2076 -1.189893,-1.64547 z m 3.4682489,-0.39969 c 0,-1.72703 0.110382,-1.94362 0.70957,-1.39232 0.390263,0.35905 0.504181,0.72878 0.25315,0.8216 -0.683929,0.2529 -0.549712,1.98756 0.176458,2.28058 0.378076,0.15261 0.276156,0.27146 -0.25315,0.29534 -0.704203,0.0318 -0.886028,-0.37973 -0.886028,-2.0052 z m 2.025205,0 c 0,-1.72703 0.110382,-1.94362 0.70957,-1.39232 0.390265,0.35905 0.504182,0.72878 0.253152,0.8216 -0.683932,0.2529 -0.549713,1.98756 0.176455,2.28058 0.378076,0.15261 0.276156,0.27146 -0.25315,0.29534 -0.704202,0.0318 -0.886027,-0.37973 -0.886027,-2.0052 z m 2.118151,0.65284 c 0.114702,-0.99691 0.483729,-1.43826 1.299383,-1.55411 0.766224,-0.10878 1.139179,0.0983 1.139179,0.63288 0,0.45712 -0.430104,0.79466 -1.012604,0.79466 -1.381381,0 -1.28442,0.88982 0.126582,1.16159 0.953914,0.18373 0.907275,0.23063 -0.286781,0.28837 -1.270096,0.0614 -1.408447,-0.0833 -1.265753,-1.32339 z m 1.795136,-0.93876 c -0.16824,-0.16825 -0.604924,-0.18624 -0.97041,-0.0399 -0.403894,0.16161 -0.283922,0.28159 0.305889,0.30588 0.533727,0.0219 0.832761,-0.0977 0.664521,-0.26592 z m 1.731889,0.93876 c -0.06486,-1.4069 0.08931,-1.63696 1.063317,-1.58674 0.807988,0.0416 0.890487,0.12428 0.283766,0.28437 -0.470476,0.12413 -0.948969,0.83815 -1.063317,1.58674 -0.187686,1.22873 -0.215285,1.20107 -0.283766,-0.28437 z m 3.215097,0.87995 c 0.991174,-0.43188 0.989237,-0.44825 -0.09154,-0.77375 -1.391311,-0.41905 -0.979069,-1.76543 0.525436,-1.71609 1.053,0.0346 1.055137,0.0479 0.07241,0.45196 -0.929557,0.38222 -0.939936,0.44602 -0.126582,0.77803 1.283855,0.52406 1.100931,1.77894 -0.25315,1.73665 -1.088194,-0.034 -1.093858,-0.0553 -0.126582,-0.4768 z m 2.172087,-0.99475 c -0.277844,-1.89306 0.162038,-2.6439 1.012259,-1.7278 0.376388,0.40556 0.429989,0.70342 0.126582,0.70342 -0.746911,0 -0.655222,1.8888 0.106609,2.1962 0.401043,0.16183 0.329361,0.27002 -0.195685,0.29534 -0.545027,0.0263 -0.904258,-0.47577 -1.049762,-1.46716 z m 2.131474,-0.0125 c 0,-1.28263 0.196895,-1.5189 1.265753,-1.5189 1.068853,0 1.265761,0.23627 1.265761,1.5189 0,1.28262 -0.196908,1.51889 -1.265761,1.51889 -1.068858,0 -1.265753,-0.23627 -1.265753,-1.51889 z m 1.935756,-0.16853 c 0.09689,-0.49959 -0.161391,-0.84408 -0.632878,-0.84408 -0.469662,0 -0.796576,0.43289 -0.796576,1.0548 0,1.23389 1.183111,1.05947 1.429454,-0.21072 z m 1.608352,0.16853 c 0,-1.25503 0.197911,-1.5087 1.139176,-1.46017 0.857258,0.0441 0.919915,0.11598 0.253148,0.29027 -0.48731,0.12741 -0.886027,0.54527 -0.886027,0.92871 0,0.38344 0.398717,0.9294 0.886027,1.21323 0.791283,0.46089 0.76422,0.51771 -0.253148,0.53147 -0.931639,0.0125 -1.139176,-0.26132 -1.139176,-1.50351 z m 3.096024,-0.50631 c 0.03318,-1.76585 0.121621,-1.99477 0.393599,-1.0177 0.238826,0.85805 0.474788,1.06017 0.738862,0.63288 0.213391,-0.34528 0.630281,-0.62777 0.926395,-0.62777 0.339535,0 0.305585,0.28054 -0.09188,0.75944 -0.502853,0.60591 -0.502853,0.91302 0,1.51891 0.397465,0.4789 0.4314,0.75944 0.09188,0.75944 -0.296114,0 -0.694252,-0.25214 -0.884728,-0.56034 -0.241409,-0.39063 -0.478153,-0.35229 -0.781578,0.12663 -0.277456,0.43789 -0.419769,-0.139 -0.39255,-1.59143 z m 5.004804,0.50631 c 0,-1.22553 0.214268,-1.5189 1.109374,-1.5189 1.085362,0 1.088101,0.0164 0.126629,0.75944 -0.972868,0.75178 -0.972868,0.76713 0,1.51891 0.961535,0.74302 0.958796,0.75944 -0.126629,0.75944 -0.895106,0 -1.109374,-0.29336 -1.109374,-1.51889 z m 2.912702,0.58891 c -0.350022,-1.33847 0.300623,-2.24577 1.451522,-2.02412 1.399478,0.26951 1.298284,2.65154 -0.121307,2.8541 -0.715916,0.10221 -1.158757,-0.17415 -1.330262,-0.82998 z m 2.06086,-0.75744 c 0.09689,-0.49959 -0.161394,-0.84408 -0.632879,-0.84408 -0.46967,0 -0.796573,0.43289 -0.796573,1.0548 0,1.23389 1.183096,1.05947 1.429452,-0.21072 z m 1.658824,0.2951 c -0.04977,-1.62013 -0.01565,-1.64547 2.227888,-1.64547 2.243258,0 2.277569,0.0254 2.227887,1.64547 -0.04523,1.47533 -0.08593,1.51848 -0.393692,0.41727 -0.501836,-1.7958 -1.570841,-1.93098 -1.631526,-0.2063 -0.04664,1.32473 -0.0756,1.34503 -0.379715,0.26545 -0.1811,-0.64298 -0.55709,-1.16904 -0.835564,-1.16904 -0.278458,0 -0.654463,0.52606 -0.835563,1.16904 -0.280635,0.99644 -0.336702,0.92608 -0.379715,-0.47642 z m 14.133722,1.01261 c -0.0047,-0.34808 -0.476307,-0.63288 -1.048986,-0.63288 -1.018777,0 -1.021876,-0.0327 -0.144004,-1.51891 0.493478,-0.83539 1.050098,-1.5189 1.236911,-1.5189 0.53026,0 0.829834,2.93901 0.372952,3.6589 -0.321236,0.50614 -0.4108,0.50866 -0.416889,0.0125 z m -0.0078,-1.92852 c 0,-0.43414 -0.227838,-0.64851 -0.506312,-0.47641 -0.278459,0.1721 -0.506297,0.5273 -0.506297,0.78932 0,0.26204 0.227838,0.47643 0.506297,0.47643 0.278474,0 0.506312,-0.3552 0.506312,-0.78934 z m 2.911231,1.78616 c 1.352723,-0.54372 1.507386,-1.48651 0.253148,-1.54309 -0.529306,-0.0239 -0.631235,-0.14275 -0.253148,-0.29535 0.909052,-0.3668 0.779371,-1.06681 -0.253149,-1.36653 -0.511744,-0.14854 -0.351336,-0.21769 0.379715,-0.16369 1.076832,0.0795 1.289221,0.37688 1.422894,1.99211 0.147916,1.78708 0.07357,1.89675 -1.265742,1.86654 -1.357169,-0.0305 -1.37027,-0.0532 -0.283718,-0.48999 z m 3.576635,0.0156 c 1.214668,-0.51522 1.089823,-1.51817 -0.188989,-1.51817 -0.401268,0 -0.729564,-0.45566 -0.729564,-1.01259 0,-0.72998 0.31795,-0.99621 1.139176,-0.95389 0.857257,0.0441 0.919899,0.11599 0.253148,0.29028 -1.203727,0.31457 -1.116777,0.99146 0.170613,1.32812 1.488368,0.38921 1.068097,2.08513 -0.555509,2.24168 l -1.260577,0.12146 1.171702,-0.49697 z m 2.625556,0.0628 c 0,-0.24437 0.341742,-0.72794 0.759445,-1.07459 1.020953,-0.84732 0.959986,-1.89856 -0.126629,-2.18251 -0.657813,-0.1719 -0.588504,-0.24667 0.269036,-0.29028 1.503567,-0.0764 1.984616,1.24129 0.893322,2.44716 -0.809722,0.89473 -0.805981,0.96298 0.06511,1.18816 0.614926,0.15895 0.458275,0.25856 -0.468089,0.29763 -0.765784,0.0322 -1.392324,-0.14119 -1.392324,-0.38557 z m 3.741331,-0.27832 c -0.598584,-1.55988 0.02661,-3.07182 1.321685,-3.19617 l 1.265742,-0.12146 -1.265742,0.58907 c -1.264459,0.58845 -1.2646,0.58927 -0.126629,0.78962 1.543199,0.27168 1.642592,2.66162 0.110663,2.66162 -0.565682,0 -1.153279,-0.32518 -1.305797,-0.72262 z m 1.827982,-0.54313 c 0,-0.4177 -0.214393,-0.75946 -0.476417,-0.75946 -0.638435,0 -1.095693,0.79064 -0.6912,1.19514 0.570206,0.57019 1.167617,0.34726 1.167617,-0.43568 z m 1.518906,-0.75946 c 0,-1.82267 0.126629,-2.0252 1.265742,-2.0252 1.139191,0 1.265758,0.20253 1.265758,2.0252 0,1.82269 -0.126629,2.02521 -1.265758,2.02521 -1.139176,0 -1.265742,-0.20252 -1.265742,-2.02521 z m 1.909171,0.60125 c 0.110194,-0.33069 -0.160329,-0.60125 -0.60123,-0.60125 -0.4409,0 -0.801644,0.36075 -0.801644,0.80165 0,0.89409 1.089948,0.73839 1.402874,-0.2004 z m -0.137117,-1.61384 c -0.172099,-0.27847 -0.540748,-0.5063 -0.819222,-0.5063 -0.278458,0 -0.365486,0.22783 -0.193387,0.5063 0.1721,0.27846 0.540748,0.5063 0.819207,0.5063 0.278474,0 0.365502,-0.22784 0.193402,-0.5063 z m 2.15177,2.70249 c 0.348097,-0.1404 0.632879,-0.9009 0.632879,-1.6899 0,-0.78898 -0.284782,-1.54942 -0.632879,-1.68987 -0.378071,-0.15262 -0.276142,-0.27148 0.253164,-0.29535 0.678741,-0.0307 0.886027,0.3647 0.886027,1.68989 0,0.95143 0.284783,1.84478 0.632864,1.98523 0.348096,0.1404 -0.05056,0.25537 -0.886028,0.25537 -0.835391,0 -1.234108,-0.11489 -0.886027,-0.25537 z m 3.8002,-0.29756 c 0.897032,-2.38696 0.899692,-2.8355 0.01816,-3.06448 -0.561659,-0.14588 -0.356236,-0.25795 0.539418,-0.29433 1.127358,-0.0457 1.378221,0.11927 1.137016,0.74777 -0.170222,0.44356 -0.447115,1.35491 -0.615348,2.0252 -0.168234,0.67029 -0.533407,1.21871 -0.811475,1.21871 -0.278067,0 -0.398544,-0.28479 -0.267736,-0.63287 z m 3.288019,0.29756 c 0.348096,-0.1404 0.632879,-0.9009 0.632879,-1.6899 0,-0.78898 -0.284783,-1.54942 -0.632879,-1.68987 -0.378072,-0.15262 -0.276142,-0.27148 0.253164,-0.29535 0.642395,-0.029 0.886027,0.34983 0.886027,1.37767 0,0.7797 0.273403,1.69104 0.607554,2.0252 0.47255,0.47255 0.27566,0.59868 -0.886028,0.5676 -0.821476,-0.0219 -1.208798,-0.15496 -0.860717,-0.29535 z m -33.289309,-1.43673 c 0,-0.41771 0.341758,-0.75946 0.759461,-0.75946 0.417688,0 0.759446,0.34175 0.759446,0.75946 0,0.41769 -0.341758,0.75944 -0.759446,0.75944 -0.417703,0 -0.759461,-0.34175 -0.759461,-0.75944 z M 14.572628,63.362963 C 14.418404,62.727188 14.355212,49.334316 14.43221,33.600984 L 14.57219,4.9949675 h 18.480003 18.479992 l 0.134925,13.2904055 0.134925,13.290408 h 3.535704 3.535704 V 22.715505 13.85524 h 3.037812 3.037797 V 34.613594 55.371953 H 61.911255 58.873443 V 46.511679 37.65139 h -3.54411 -3.544109 v 8.860289 8.860274 h -3.032491 -3.03249 L 45.588292,33.221254 45.456341,11.070576 H 33.051958 20.647582 v 23.543018 23.543023 l 6.760512,0.253148 6.760516,0.253149 0.960174,2.531515 c 0.528085,1.392324 0.960345,2.685678 0.96058,2.874119 2.19e-4,0.18844 -4.777905,0.366864 -10.618067,0.396478 l -10.618477,0.05385 z m 25.22767,0.243224 C 39.627838,63.11512 38.982594,61.574144 38.366401,60.18182 37.750223,58.789496 35.561983,53.7771 33.503644,49.043195 l -3.742412,-8.607125 -0.14009,7.467949 -0.14009,7.467934 H 26.456774 23.432501 V 34.613594 13.85524 h 3.037808 3.037806 l 0.03162,7.467941 0.03178,7.467936 2.402038,-5.063 c 1.321121,-2.784667 2.844738,-6.144385 3.385831,-7.466049 l 0.983808,-2.40304 3.164379,-0.0016 c 1.740406,-0.0011 3.164379,0.09313 3.164379,0.209274 0,0.216569 -1.10535,2.844766 -2.892291,6.877042 -0.55532,1.253095 -2.105046,4.829295 -3.443839,7.947123 l -2.434157,5.668769 1.571389,3.697801 c 0.864255,2.033812 3.155348,7.343198 5.0913,11.798645 l 3.519911,8.100813 h 11.8248 11.824801 V 34.613719 11.070717 l -6.581906,-0.08312 -6.581922,-0.08311 V 7.9497585 4.9950305 l 8.607125,-0.144317 c 4.733921,-0.07936 9.121577,-0.01769 9.75037,0.137273 l 1.143261,0.281636 -0.130698,29.4813695 -0.130699,29.481375 -16.847777,0.13336 c -15.70785,0.124437 -16.869002,0.07294 -17.16136,-0.759461 z"
     id="path838"
     inkscape:connector-curvature="0" />
</svg>
